<svg height="640" viewBox="0 0 480 480" width="640" xmlns="http://www.w3.org/2000/svg"><path d="M240 0C107.453 0 0 107.453 0 240s107.453 240 240 240 240-107.453 240-240C479.852 107.516 372.484.148 240 0zm0 464C116.29 464 16 363.71 16 240S116.29 16 240 16s224 100.29 224 224c-.14 123.652-100.348 223.86-224 224zm0 0"/><path d="M355.574 232.84l-192-96A8.001 8.001 0 00152 144v192a7.998 7.998 0 0011.574 7.2l192-96a7.993 7.993 0 004.434-7.16 8.001 8.001 0 00-4.434-7.161zM168 323.055v-166.11L334.113 240zm0 0"/></svg>